:SAMPLES-PER-SECOND 30
:FULLY-SPECIFIED
:DEGREES
109
root  34.412 37.8778 2.45313 -144.778 84.1644 -143.143
RightUpLeg  -25.1964 5.88639 3.85741
RightLeg  8.42099 1.57645 -0.794084
RightFoot  5.19361 -0.49384 3.0766
RightToes  -2.32832e-010 -1.59028e-015 9.93923e-017
Spine  2.47729 -6.29764 -5.902
Spine1  8.02803 -8.96077 9.26392
HEad  -12.3287 6.95218 2.02498
LeftShoulder1  9.93923e-017 0 1.22299e-017
LeftArm  19.5996 0.00952326 -76.0103
LeftForeArm  -25.0622 -32.6283 21.1826
LeftHand  0.324982 4.01511 8.43098
RightShoulder  1.98785e-016 -4.96962e-017 1.55301e-017
RightArm  0.348731 -68.313 52.8982
RightForeArm  -148.799 7.84135 -8.71417
RightHand  1.42748 11.1645 15.9652
LeftUpLeg  17.717 -3.31546 5.19405
LeftLeg  17.0354 -12.5097 -0.900766
LeftFoot  -7.41207 0.517387 -10.2585
LeftToes  1.49248e-009 -4.82331e-011 8.60243e-011
110
root  36.4022 37.5712 2.59896 -136.156 82.6649 -134.01
RightUpLeg  -25.5261 7.9894 6.1081
RightLeg  15.2286 0.550314 -2.48441
RightFoot  7.07629 0.00712119 -0.0305561
RightToes  -2.32832e-010 -1.59028e-015 9.93923e-017
Spine  3.24137 -6.23662 -3.37289
Spine1  7.41129 -8.83139 9.55275
HEad  -12.8916 6.90095 1.40712
LeftShoulder1  9.93923e-017 0 1.22299e-017
LeftArm  21.7893 4.45086 -77.9966
LeftForeArm  -27.4695 -29.8948 19.8394
LeftHand  0.292706 3.87701 8.50969
RightShoulder  1.98785e-016 -4.96962e-017 1.55301e-017
RightArm  -6.48208 -66.0293 60.1504
RightForeArm  -150.467 7.45256 -8.97353
RightHand  1.57137 11.3253 16.8457
LeftUpLeg  17.1789 -4.02706 8.4016
LeftLeg  23.3813 -12.2081 -1.50556
LeftFoot  -0.0554452 1.50445 -12.7959
LeftToes  1.49248e-009 -4.82331e-011 8.60243e-011
111
root  38.1767 37.3156 2.71634 -131.317 81.0041 -128.196
RightUpLeg  -25.0526 9.1632 8.56699
RightLeg  21.2539 0.00543006 -3.95238
RightFoot  5.27755 0.456757 -2.81463
RightToes  -2.32832e-010 -1.59028e-015 9.93923e-017
Spine  4.91066 -6.11418 -0.227716
Spine1  6.9869 -8.32743 9.5186
HEad  -13.6947 6.42727 1.14204
LeftShoulder1  9.93923e-017 0 1.22299e-017
LeftArm  27.1039 8.85459 -80.6159
LeftForeArm  -33.0373 -25.5388 17.6588
LeftHand  0.280354 3.76161 8.09766
RightShoulder  1.98785e-016 -4.96962e-017 1.55301e-017
RightArm  -14.1943 -61.9826 68.5425
RightForeArm  -151.131 6.90501 -9.10489
RightHand  1.68153 11.486 17.4941
LeftUpLeg  14.2775 -4.87267 11.0132
LeftLeg  32.7815 -11.2071 -0.67584
LeftFoot  11.6739 2.60009 -11.4925
LeftToes  1.49248e-009 -4.82331e-011 8.60243e-011
112
root  39.7913 37.1291 2.79776 -130.087 79.7659 -126.187
RightUpLeg  -23.9791 8.80462 10.653
RightLeg  26.0595 -0.00347793 -5.08884
RightFoot  1.27721 0.540553 -4.27679
RightToes  -2.32832e-010 -1.59028e-015 9.93923e-017
Spine  5.96654 -5.96246 2.46779
Spine1  7.16555 -7.59995 9.18944
HEad  -14.2883 5.70528 1.13057
LeftShoulder1  9.93923e-017 0 1.22299e-017
LeftArm  16.2965 12.6086 -82.5861
LeftForeArm  -22.5623 -20.954 6.73046
LeftHand  0.277989 3.63624 7.33427
RightShoulder  1.98785e-016 -4.96962e-017 1.55301e-017
RightArm  -20.1771 -55.7254 75.6396
RightForeArm  -150.449 6.53262 -9.12996
RightHand  1.6812 11.4905 17.4902
LeftUpLeg  9.34591 -6.25196 12.1757
LeftLeg  43.0622 -9.65572 1.42526
LeftFoot  21.0903 2.89475 -9.09858
LeftToes  1.49248e-009 -4.82331e-011 8.60243e-011
